<?xml version="1.0" encoding="utf-8"?>
<!-- Generator: Adobe Illustrator 15.0.2, SVG Export Plug-In . SVG Version: 6.00 Build 0)  -->
<!DOCTYPE svg PUBLIC "-//W3C//DTD SVG 1.1//EN" "http://www.w3.org/Graphics/SVG/1.1/DTD/svg11.dtd">
<svg version="1.1" id="Layer_1" xmlns="http://www.w3.org/2000/svg" xmlns:xlink="http://www.w3.org/1999/xlink" x="0px" y="0px"
	 width="9.248px" height="9.122px" viewBox="0 0 9.248 9.122" enable-background="new 0 0 9.248 9.122" xml:space="preserve">
<g>
	<path fill="#24E0ED" d="M0,4.562C0,2.042,2.069,0,4.624,0c2.555,0,4.624,2.042,4.624,4.562c0,2.517-2.069,4.56-4.624,4.56
		C2.069,9.122,0,7.079,0,4.562"/>
	<path fill="#FFFFFF" d="M4.853,7.017h1.005v0.271v0.487c0,0,0.053,0.228,0.229,0.228H6.31c0.178,0,0.229-0.228,0.229-0.228V7.379
		V7.288V7.017c0.58-0.056,0.588-0.513,0.588-0.513V4.484c0-0.076-0.02-0.391-0.02-0.391L6.965,2.481
		C6.944,2.02,6.597,1.913,6.597,1.913C5.858,1.539,5.151,1.477,5.151,1.477H4.762H4.483h-0.39c0,0-0.706,0.062-1.441,0.437
		c0,0-0.351,0.107-0.372,0.568L2.141,4.094c0,0-0.02,0.315-0.02,0.391v2.02c0,0,0.007,0.457,0.587,0.514V7.29v0.092v0.396
		c0,0,0.052,0.228,0.231,0.228h0.216c0.18,0,0.231-0.228,0.231-0.228V7.288V7.017h1.006H4.853z"/>
	<path fill="#24E0ED" d="M2.827,6c0.186,0,0.341-0.146,0.341-0.332c0-0.19-0.155-0.338-0.341-0.338
		c-0.189,0-0.346,0.147-0.346,0.338C2.481,5.854,2.638,6,2.827,6"/>
	<path fill="#24E0ED" d="M6.419,6C6.231,6,6.076,5.854,6.076,5.668c0-0.19,0.155-0.338,0.343-0.338s0.344,0.147,0.344,0.338
		C6.763,5.854,6.606,6,6.419,6"/>
	<path fill="#24E0ED" d="M4.909,4.473h1.547c0.293,0,0.318-0.33,0.318-0.33s-0.068-0.707-0.105-1.05
		c-0.04-0.346-0.35-0.327-0.35-0.327H4.902h-0.56H2.926c0,0-0.309-0.019-0.349,0.327c-0.038,0.343-0.105,1.05-0.105,1.05
		s0.027,0.33,0.32,0.33h1.542H4.909z"/>
	<path fill="#24E0ED" d="M5.719,2.561c0.152,0,0.271-0.118,0.271-0.268c0-0.14-0.117-0.261-0.271-0.261H3.526
		c-0.147,0-0.269,0.121-0.269,0.261c0,0.15,0.121,0.268,0.269,0.268H5.719z"/>
</g>
</svg>
